<svg xmlns="http://www.w3.org/2000/svg" width="131.476" height="132" viewBox="0 0 131.476 132">
  <g id="Group_138" data-name="Group 138" transform="translate(-891.5 -516.5)">
    <g id="iconfinder_shopping-cart_2561279" transform="translate(894 519)">
      <circle id="Ellipse_1" data-name="Ellipse 1" cx="12.448" cy="12.448" r="12.448" transform="translate(28.661 100.581)" stroke-width="7" stroke="#1cb5e0" stroke-linecap="round" stroke-linejoin="round" fill="none"/>
      <circle id="Ellipse_2" data-name="Ellipse 2" cx="12.5" cy="12.5" r="12.5" transform="translate(94 101)" stroke-width="7" stroke="#1cb5e0" stroke-linecap="round" stroke-linejoin="round" fill="none"/>
      <path id="Path_1" data-name="Path 1" d="M27.423,27.97h98.053l-9.505,45.256a11.206,11.206,0,0,1-11.316,8.684H44.85a11.154,11.154,0,0,1-11.316-9.386l-8.6-62.139A11.148,11.148,0,0,0,13.73,1H1" transform="translate(0 0)" fill="none" stroke="#1cb5e0" stroke-linecap="round" stroke-linejoin="round" stroke-width="7"/>
    </g>
    <path id="Union_6" data-name="Union 6" d="M-10559.169-1553.414a1,1,0,0,1-1-1v-13.83H-10574a1,1,0,0,1-1-1v-4.907a1,1,0,0,1,1-1h13.83v-15.26a1,1,0,0,1,1-1h4.91a1,1,0,0,1,1,1v15.26H-10538a1,1,0,0,1,1,1v4.907a1,1,0,0,1-1,1h-15.261v13.83a1,1,0,0,1-1,1Z" transform="translate(9546.086 -5779.668) rotate(-45)" fill="#1cb5e0"/>
  </g>
</svg>
