<svg id="iconfinder_Instagram_Color_1435162" xmlns="http://www.w3.org/2000/svg" width="24" height="24" viewBox="0 0 24 24">
  <path id="XMLID_142_" d="M150.069,207.236a6.118,6.118,0,0,0-3.505-3.505,8.756,8.756,0,0,0-2.912-.556c-1.28-.056-1.688-.074-4.952-.074s-3.672.009-4.952.074a8.707,8.707,0,0,0-2.912.556,6.118,6.118,0,0,0-3.505,3.505,8.755,8.755,0,0,0-.556,2.912c-.056,1.28-.074,1.688-.074,4.952s.009,3.672.074,4.952a8.706,8.706,0,0,0,.556,2.912,6.118,6.118,0,0,0,3.505,3.505,8.755,8.755,0,0,0,2.912.556c1.28.056,1.688.074,4.952.074s3.672-.009,4.952-.074a8.705,8.705,0,0,0,2.912-.556,6.118,6.118,0,0,0,3.505-3.505,8.754,8.754,0,0,0,.556-2.912c.056-1.28.074-1.688.074-4.952s-.009-3.672-.074-4.952A8.7,8.7,0,0,0,150.069,207.236Zm-1.6,12.714a6.558,6.558,0,0,1-.417,2.226,3.716,3.716,0,0,1-.9,1.382,3.757,3.757,0,0,1-1.382.9,6.614,6.614,0,0,1-2.226.417c-1.271.056-1.641.074-4.85.074s-3.589-.009-4.85-.074a6.559,6.559,0,0,1-2.226-.417,3.716,3.716,0,0,1-1.382-.9,3.757,3.757,0,0,1-.9-1.382,6.613,6.613,0,0,1-.417-2.226c-.056-1.27-.074-1.651-.074-4.85s.009-3.589.074-4.85a6.559,6.559,0,0,1,.417-2.226,3.717,3.717,0,0,1,.9-1.382,3.757,3.757,0,0,1,1.382-.9,6.614,6.614,0,0,1,2.226-.417c1.27-.056,1.651-.074,4.85-.074s3.589.009,4.85.074a6.56,6.56,0,0,1,2.226.417,3.717,3.717,0,0,1,1.382.9,3.757,3.757,0,0,1,.9,1.382,6.614,6.614,0,0,1,.417,2.226c.056,1.27.074,1.651.074,4.85S148.521,218.689,148.465,219.95Z" transform="translate(-126.7 -203.1)" fill="#fff"/>
  <path id="XMLID_145_" d="M196.406,266c-3.811,0-6.906,2.758-6.906,6.154s3.095,6.154,6.906,6.154,6.906-2.758,6.906-6.154S200.217,266,196.406,266Zm0,10.151a4.024,4.024,0,1,1,4.486-4A4.264,4.264,0,0,1,196.406,276.151Z" transform="translate(-184.414 -260.154)" fill="#fff"/>
  <ellipse id="XMLID_143_" cx="1.441" cy="1.441" rx="1.441" ry="1.441" transform="translate(16.956 4.153)" fill="#fff"/>
</svg>
